HIERARCHY
ROOT newVegas:Hips
{
	OFFSET 0.000000 96.479958 0.000000
	CHANNELS 6 Xposition Yposition Zposition Xrotation Yrotation Zrotation
	JOINT newVegas:Pelvis
	{
		OFFSET 0.000000 0.000000 0.000000
		CHANNELS 3 Xrotation Yrotation Zrotation
		JOINT newVegas:LeftUpLeg
		{
			OFFSET 18.735201 -5.666702 -4.541200
			CHANNELS 3 Xrotation Yrotation Zrotation
			JOINT newVegas:LeftLeg
			{
				OFFSET -0.021200 -31.938179 0.493100
				CHANNELS 3 Xrotation Yrotation Zrotation
				JOINT newVegas:LeftFoot
				{
					OFFSET 0.021200 -31.938179 -4.336299
					CHANNELS 3 Xrotation Yrotation Zrotation
					JOINT newVegas:LeftToeBase
					{
						OFFSET 0.943001 -26.722000 15.023500
						CHANNELS 3 Xrotation Yrotation Zrotation
						End Site
						{
							OFFSET 0.000000 30.670183 0.000000
						}
					}
				}
				JOINT newVegas:Left_PantLeg
				{
					OFFSET 0.663870 -9.044666 -1.108900
					CHANNELS 3 Xrotation Yrotation Zrotation
					End Site
					{
						OFFSET 1.415995 20.635357 0.000000
					}
				}
			}
		}
		JOINT newVegas:RightUpLeg
		{
			OFFSET -18.735201 -5.666702 -4.541200
			CHANNELS 3 Xrotation Yrotation Zrotation
			JOINT newVegas:RightLeg
			{
				OFFSET 0.018946 -31.938133 0.493100
				CHANNELS 3 Xrotation Yrotation Zrotation
				JOINT newVegas:RightFoot
				{
					OFFSET -0.018946 -31.938126 -4.336299
					CHANNELS 3 Xrotation Yrotation Zrotation
					JOINT newVegas:RightToeBase
					{
						OFFSET -0.943001 -26.722004 15.023500
						CHANNELS 3 Xrotation Yrotation Zrotation
						End Site
						{
							OFFSET 0.000000 30.670187 0.000000
						}
					}
				}
				JOINT newVegas:Right_PantLeg
				{
					OFFSET -0.661674 -9.044716 -1.108900
					CHANNELS 3 Xrotation Yrotation Zrotation
					End Site
					{
						OFFSET -1.415958 20.635269 0.000000
					}
				}
			}
		}
	}
	JOINT newVegas:Spine
	{
		OFFSET 0.000000 10.199997 -0.299500
		CHANNELS 3 Xrotation Yrotation Zrotation
		JOINT newVegas:Spine1
		{
			OFFSET 0.000000 11.900002 -1.516600
			CHANNELS 3 Xrotation Yrotation Zrotation
			JOINT newVegas:Spine2
			{
				OFFSET 0.000000 13.600006 -2.842500
				CHANNELS 3 Xrotation Yrotation Zrotation
				JOINT newVegas:Neck
				{
					OFFSET 0.000000 9.624100 -2.890100
					CHANNELS 3 Xrotation Yrotation Zrotation
					JOINT newVegas:Head
					{
						OFFSET 0.000000 14.068802 -1.351900
						CHANNELS 3 Xrotation Yrotation Zrotation
						JOINT newVegas:Hair_Back
						{
							OFFSET 0.000000 3.231903 -17.524799
							CHANNELS 3 Xrotation Yrotation Zrotation
							End Site
							{
								OFFSET 0.000000 19.849884 0.000000
							}
						}
						JOINT newVegas:Hair_Front
						{
							OFFSET 0.000000 31.260406 4.573800
							CHANNELS 3 Xrotation Yrotation Zrotation
							JOINT newVegas:Hair_Front1
							{
								OFFSET 0.000000 2.284103 11.993300
								CHANNELS 3 Xrotation Yrotation Zrotation
								JOINT newVegas:Hair_Front2
								{
									OFFSET 0.000000 2.284103 11.993300
									CHANNELS 3 Xrotation Yrotation Zrotation
									End Site
									{
										OFFSET 0.000000 12.208862 0.000000
									}
								}
							}
						}
						JOINT newVegas:Jowel
						{
							OFFSET 0.000000 -7.458206 6.864100
							CHANNELS 3 Xrotation Yrotation Zrotation
							End Site
							{
								OFFSET 0.000000 19.849884 0.000000
							}
						}
					}
				}
				JOINT newVegas:LeftShoulder
				{
					OFFSET 15.263000 10.923401 -0.547700
					CHANNELS 3 Xrotation Yrotation Zrotation
					JOINT newVegas:LeftArm
					{
						OFFSET 25.438599 -2.830597 -13.032500
						CHANNELS 3 Xrotation Yrotation Zrotation
						JOINT newVegas:LeftForeArm
						{
							OFFSET 29.960503 0.000000 0.000000
							CHANNELS 3 Xrotation Yrotation Zrotation
							JOINT newVegas:LeftHand
							{
								OFFSET 27.849251 0.000000 0.000000
								CHANNELS 3 Xrotation Yrotation Zrotation
								JOINT newVegas:LeftHandThumb1
								{
									OFFSET 4.487587 -3.305161 6.305391
									CHANNELS 3 Xrotation Yrotation Zrotation
									JOINT newVegas:LeftHandThumb2
									{
										OFFSET 5.480453 -3.164139 3.164143
										CHANNELS 3 Xrotation Yrotation Zrotation
										JOINT newVegas:LeftHandThumb3
										{
											OFFSET 5.159721 -2.978973 2.978967
											CHANNELS 3 Xrotation Yrotation Zrotation
											End Site
											{
												OFFSET 2.494507 5.926697 1.738678
											}
										}
									}
								}
								JOINT newVegas:LeftHandIndex1
								{
									OFFSET 18.578728 -0.527832 5.208049
									CHANNELS 3 Xrotation Yrotation Zrotation
									JOINT newVegas:LeftHandIndex2
									{
										OFFSET 3.192009 0.000000 0.000000
										CHANNELS 3 Xrotation Yrotation Zrotation
										JOINT newVegas:LeftHandIndex3
										{
											OFFSET 3.835129 0.000000 0.000000
											CHANNELS 3 Xrotation Yrotation Zrotation
											End Site
											{
												OFFSET -0.034599 3.816971 0.371180
											}
										}
									}
								}
								JOINT newVegas:LeftHandMiddle1
								{
									OFFSET 18.476105 0.000000 0.000000
									CHANNELS 3 Xrotation Yrotation Zrotation
									JOINT newVegas:LeftHandMiddle2
									{
										OFFSET 3.324875 0.000000 0.000000
										CHANNELS 3 Xrotation Yrotation Zrotation
										JOINT newVegas:LeftHandMiddle3
										{
											OFFSET 4.596550 0.000000 0.000000
											CHANNELS 3 Xrotation Yrotation Zrotation
											End Site
											{
												OFFSET 0.057701 4.578827 0.399218
											}
										}
									}
								}
								JOINT newVegas:LeftHandRing1
								{
									OFFSET 17.732719 0.121887 -4.201567
									CHANNELS 3 Xrotation Yrotation Zrotation
									JOINT newVegas:LeftHandRing2
									{
										OFFSET 2.733170 0.000000 0.000000
										CHANNELS 3 Xrotation Yrotation Zrotation
										JOINT newVegas:LeftHandRing3
										{
											OFFSET 3.178268 0.000000 0.000000
											CHANNELS 3 Xrotation Yrotation Zrotation
											End Site
											{
												OFFSET 0.119102 3.170624 0.185394
											}
										}
									}
								}
								JOINT newVegas:LeftHandPinky1
								{
									OFFSET 15.989624 -0.606689 -7.535461
									CHANNELS 3 Xrotation Yrotation Zrotation
									JOINT newVegas:LeftHandPinky2
									{
										OFFSET 2.538986 0.000000 0.000000
										CHANNELS 3 Xrotation Yrotation Zrotation
										JOINT newVegas:LeftHandPinky3
										{
											OFFSET 2.593102 0.000000 0.000000
											CHANNELS 3 Xrotation Yrotation Zrotation
											End Site
											{
												OFFSET -0.150902 2.584198 0.152708
											}
										}
									}
								}
							}
							JOINT newVegas:Left_Sleeve
							{
								OFFSET 0.267448 -0.649796 0.577675
								CHANNELS 3 Xrotation Yrotation Zrotation
								End Site
								{
									OFFSET 0.000000 15.991241 0.000000
								}
							}
							JOINT newVegas:Left_CapeC
							{
								OFFSET 15.715958 -8.608795 -6.935905
								CHANNELS 3 Xrotation Yrotation Zrotation
								JOINT newVegas:Left_CapeC1
								{
									OFFSET 0.000000 -8.688499 0.000000
									CHANNELS 3 Xrotation Yrotation Zrotation
									End Site
									{
										OFFSET 0.000000 8.688499 0.000000
									}
								}
							}
						}
						JOINT newVegas:Left_CapeB
						{
							OFFSET 26.118385 -8.608795 -7.079235
							CHANNELS 3 Xrotation Yrotation Zrotation
							JOINT newVegas:Left_CapeB1
							{
								OFFSET 0.000000 -8.688499 0.000000
								CHANNELS 3 Xrotation Yrotation Zrotation
								End Site
								{
									OFFSET 0.000000 8.688499 0.000000
								}
							}
						}
						JOINT newVegas:Left_CapeA
						{
							OFFSET 5.115639 -8.608795 -10.395809
							CHANNELS 3 Xrotation Yrotation Zrotation
							JOINT newVegas:Left_CapeA1
							{
								OFFSET 0.000000 -8.688499 0.000000
								CHANNELS 3 Xrotation Yrotation Zrotation
								End Site
								{
									OFFSET 0.000000 8.688499 0.000000
								}
							}
						}
					}
				}
				JOINT newVegas:RightShoulder
				{
					OFFSET -15.263000 10.923401 -0.547700
					CHANNELS 3 Xrotation Yrotation Zrotation
					JOINT newVegas:RightArm
					{
						OFFSET -25.438599 -2.830597 -13.032500
						CHANNELS 3 Xrotation Yrotation Zrotation
						JOINT newVegas:RightForeArm
						{
							OFFSET -29.960503 0.000000 0.000000
							CHANNELS 3 Xrotation Yrotation Zrotation
							JOINT newVegas:RightHand
							{
								OFFSET -27.849251 0.000000 0.000000
								CHANNELS 3 Xrotation Yrotation Zrotation
								JOINT newVegas:RightHandThumb1
								{
									OFFSET -4.487587 -3.305161 6.305391
									CHANNELS 3 Xrotation Yrotation Zrotation
									JOINT newVegas:RightHandThumb2
									{
										OFFSET -5.480453 -3.164139 3.164143
										CHANNELS 3 Xrotation Yrotation Zrotation
										JOINT newVegas:RightHandThumb3
										{
											OFFSET -5.159721 -2.978973 2.978967
											CHANNELS 3 Xrotation Yrotation Zrotation
											End Site
											{
												OFFSET -2.494507 5.926697 1.738678
											}
										}
									}
								}
								JOINT newVegas:RightHandIndex1
								{
									OFFSET -18.578728 -0.527832 5.208049
									CHANNELS 3 Xrotation Yrotation Zrotation
									JOINT newVegas:RightHandIndex2
									{
										OFFSET -3.192009 0.000000 0.000000
										CHANNELS 3 Xrotation Yrotation Zrotation
										JOINT newVegas:RightHandIndex3
										{
											OFFSET -3.835129 0.000000 0.000000
											CHANNELS 3 Xrotation Yrotation Zrotation
											End Site
											{
												OFFSET 0.034599 3.816971 0.371180
											}
										}
									}
								}
								JOINT newVegas:RightHandMiddle1
								{
									OFFSET -18.476105 0.000000 0.000000
									CHANNELS 3 Xrotation Yrotation Zrotation
									JOINT newVegas:RightHandMiddle2
									{
										OFFSET -3.324875 0.000000 0.000000
										CHANNELS 3 Xrotation Yrotation Zrotation
										JOINT newVegas:RightHandMiddle3
										{
											OFFSET -4.596550 0.000000 0.000000
											CHANNELS 3 Xrotation Yrotation Zrotation
											End Site
											{
												OFFSET -0.057701 4.578827 0.399218
											}
										}
									}
								}
								JOINT newVegas:RightHandRing1
								{
									OFFSET -17.732719 0.121887 -4.201567
									CHANNELS 3 Xrotation Yrotation Zrotation
									JOINT newVegas:RightHandRing2
									{
										OFFSET -2.733170 0.000000 0.000000
										CHANNELS 3 Xrotation Yrotation Zrotation
										JOINT newVegas:RightHandRing3
										{
											OFFSET -3.178268 0.000000 0.000000
											CHANNELS 3 Xrotation Yrotation Zrotation
											End Site
											{
												OFFSET -0.119102 3.170624 0.185394
											}
										}
									}
								}
								JOINT newVegas:RightHandPinky1
								{
									OFFSET -15.989624 -0.606689 -7.535461
									CHANNELS 3 Xrotation Yrotation Zrotation
									JOINT newVegas:RightHandPinky2
									{
										OFFSET -2.538986 0.000000 0.000000
										CHANNELS 3 Xrotation Yrotation Zrotation
										JOINT newVegas:RightHandPinky3
										{
											OFFSET -2.593102 0.000000 0.000000
											CHANNELS 3 Xrotation Yrotation Zrotation
											End Site
											{
												OFFSET 0.150902 2.584198 0.152708
											}
										}
									}
								}
							}
							JOINT newVegas:Right_CapeC
							{
								OFFSET -15.715958 -8.608795 -6.935905
								CHANNELS 3 Xrotation Yrotation Zrotation
								JOINT newVegas:Right_CapeC1
								{
									OFFSET 0.000000 -8.688499 0.000000
									CHANNELS 3 Xrotation Yrotation Zrotation
									End Site
									{
										OFFSET 0.000000 8.688499 0.000000
									}
								}
							}
							JOINT newVegas:Right_Sleeve
							{
								OFFSET -0.267448 -0.649994 0.577675
								CHANNELS 3 Xrotation Yrotation Zrotation
								End Site
								{
									OFFSET 0.000000 15.991302 0.000000
								}
							}
						}
						JOINT newVegas:Right_CapeA
						{
							OFFSET -5.115540 -8.608795 -10.395824
							CHANNELS 3 Xrotation Yrotation Zrotation
							JOINT newVegas:Right_CapeA1
							{
								OFFSET 0.000000 -8.688499 0.000000
								CHANNELS 3 Xrotation Yrotation Zrotation
								End Site
								{
									OFFSET 0.000000 8.688499 0.000000
								}
							}
						}
						JOINT newVegas:Right_CapeB
						{
							OFFSET -26.118187 -8.608795 -7.079266
							CHANNELS 3 Xrotation Yrotation Zrotation
							JOINT newVegas:Right_CapeB1
							{
								OFFSET 0.000000 -8.688499 0.000000
								CHANNELS 3 Xrotation Yrotation Zrotation
								End Site
								{
									OFFSET 0.000000 8.688499 0.000000
								}
							}
						}
					}
				}
				JOINT newVegas:Left_Collar
				{
					OFFSET 18.625099 8.655502 8.828100
					CHANNELS 3 Xrotation Yrotation Zrotation
					JOINT newVegas:Left_Collar1
					{
						OFFSET 14.783401 10.540405 -1.259500
						CHANNELS 3 Xrotation Yrotation Zrotation
						End Site
						{
							OFFSET 0.000000 18.199875 0.000000
						}
					}
				}
				JOINT newVegas:Collar_Back
				{
					OFFSET 0.000000 15.630707 -20.132601
					CHANNELS 3 Xrotation Yrotation Zrotation
					End Site
					{
						OFFSET 0.000000 22.523010 0.000000
					}
				}
				JOINT newVegas:Left_Peck
				{
					OFFSET 17.239599 -5.132599 25.482599
					CHANNELS 3 Xrotation Yrotation Zrotation
					End Site
					{
						OFFSET 0.000000 22.523010 0.000000
					}
				}
				JOINT newVegas:Right_Peck
				{
					OFFSET -17.239599 -5.132202 25.482599
					CHANNELS 3 Xrotation Yrotation Zrotation
					End Site
					{
						OFFSET 0.000000 22.523010 0.000000
					}
				}
				JOINT newVegas:Right_Collar
				{
					OFFSET -18.625099 8.655792 8.828100
					CHANNELS 3 Xrotation Yrotation Zrotation
					JOINT newVegas:Right_Collar1
					{
						OFFSET -14.783401 10.539993 -1.259500
						CHANNELS 3 Xrotation Yrotation Zrotation
						End Site
						{
							OFFSET 0.000000 18.199631 0.000000
						}
					}
				}
			}
		}
		JOINT newVegas:Belly
		{
			OFFSET 0.000000 -6.540398 9.014299
			CHANNELS 3 Xrotation Yrotation Zrotation
			End Site
			{
				OFFSET 0.000000 11.566666 0.000000
			}
		}
	}
	JOINT newVegas:ElvisFacialAnim_Joint
	{
		OFFSET 1.000000 -95.330101 -8.825800
		CHANNELS 3 Xrotation Yrotation Zrotation
		End Site
		{
			OFFSET 0.000000 35.315800 0.000000
		}
	}
}
MOTION
Frames: 4
Frame Time: 0.016667
-5.837875 84.923203 49.276268 29.892576 6.622765 -17.625774 0.000001 -0.000000 0.000001 -81.582976 -4.244623 13.054204 46.164183 7.012229 -8.134755 4.583024 0.384632 9.154386 -0.000000 0.000000 0.000000 -0.000000 -0.000000 0.000000 -18.344749 -21.761217 -22.063751 73.419008 -5.908877 -3.401663 41.794371 1.071091 2.347669 -0.000004 0.000001 -0.000002 -0.000000 -0.000001 0.000000 6.141961 11.474292 -8.437920 11.648234 11.205353 -7.545702 11.698387 11.155146 -7.567838 -4.056887 -2.704129 3.126962 -4.056840 -2.704096 3.126947 0.000001 -0.000003 0.000001 -4.056908 -2.704151 3.126960 -4.056892 -2.704041 3.126949 -0.000001 -0.000003 0.000001 0.000001 -0.000003 -0.000001 -0.266290 3.848959 2.890081 28.180063 -44.869828 -18.300124 -0.000001 -24.379725 0.000006 -6.282341 38.817000 -1.221412 -3.708763 -5.344632 -9.285597 10.685374 16.536453 0.020104 -0.000003 0.000000 -0.000004 0.013957 0.439248 -3.642312 0.025887 0.597740 -4.959523 -0.000002 -0.000001 -0.000001 0.013839 0.437315 -3.626332 0.026068 0.599671 -4.975520 -0.000001 -0.000000 -0.000000 0.013968 0.439243 -3.642312 0.025882 0.597748 -4.959522 -0.000002 -0.000001 0.000001 0.254033 4.486446 -3.142213 0.013189 -3.456763 -5.468401 -0.000000 -0.000002 -0.000001 0.000000 -0.000000 0.000001 0.000000 -0.000000 0.000001 -0.000000 -0.000000 0.000001 0.000001 0.000003 0.000001 0.000001 0.000002 0.000001 0.000001 0.000003 0.000001 -0.000001 0.000001 0.000001 4.952145 16.802284 -7.381368 -6.598544 60.118191 21.651654 0.000001 37.609122 -0.000007 -29.432573 -31.794985 -16.154804 31.276468 -0.747329 -0.159477 -3.876763 -9.680811 -4.069526 0.000001 -0.000000 -0.000001 0.578525 -2.781502 23.494930 0.464469 -2.503097 21.020985 -0.000003 -0.000001 0.000003 0.578529 -2.781499 23.494930 0.464459 -2.503100 21.020995 0.000000 0.000002 0.000001 0.578526 -2.781487 23.494929 0.464471 -2.503106 21.020988 0.000002 -0.000001 0.000000 0.578526 -2.781512 23.494935 0.464468 -2.503087 21.020985 -0.000001 0.000001 0.000003 0.000001 0.000001 0.000002 0.000000 0.000001 0.000002 0.000001 0.000000 0.000001 -0.000001 0.000002 -0.000000 -0.000001 0.000002 0.000000 -0.000001 0.000002 -0.000000 -0.000000 0.000002 0.000000 0.000001 -0.000001 -0.000000 0.000001 -0.000001 -0.000000 0.000001 -0.000001 -0.000000 0.000001 -0.000001 -0.000000 0.000001 -0.000001 -0.000000 0.000001 -0.000001 -0.000000 0.000001 -0.000001 -0.000000 0.000002 0.000000 0.000001 0.000001 -0.000000 0.000001 
-5.902790 84.742424 49.732464 29.038751 7.169726 -17.468503 0.000002 -0.000000 -0.000000 -81.213784 -3.816409 13.217597 47.602812 6.234966 -8.093676 3.611848 0.347050 9.072545 0.000000 -0.000002 -0.000000 -0.000000 0.000001 -0.000000 -19.338128 -21.716867 -21.282837 71.430829 -4.960632 -3.492168 42.037700 0.709049 1.265388 -0.000000 0.000002 -0.000001 -0.000000 -0.000004 -0.000001 6.149848 10.757325 -8.785658 11.676786 10.962426 -7.565075 11.760134 10.875364 -7.586996 -4.098119 -2.671902 3.062224 -4.098076 -2.671886 3.062214 -0.000003 -0.000000 0.000001 -4.098039 -2.671966 3.062241 -4.098173 -2.671812 3.062197 -0.000002 -0.000000 0.000000 -0.000003 -0.000000 0.000001 -0.255811 3.725903 3.215409 28.574284 -46.645988 -14.108370 -0.000001 -23.223243 -0.000015 -8.175421 37.907413 -1.748921 -3.708768 -5.344631 -9.285599 10.685374 16.536455 0.020102 0.000000 -0.000002 -0.000003 0.013958 0.439250 -3.642316 0.025887 0.597739 -4.959524 -0.000002 -0.000000 -0.000001 0.013835 0.437320 -3.626332 0.026069 0.599672 -4.975521 0.000002 0.000002 -0.000001 0.013961 0.439249 -3.642314 0.025882 0.597745 -4.959525 -0.000001 0.000001 0.000001 0.254029 4.486457 -3.142215 0.013188 -3.456756 -5.468401 -0.000001 0.000000 -0.000000 0.000002 0.000001 -0.000001 0.000002 0.000001 -0.000001 0.000001 0.000001 -0.000001 -0.000001 0.000001 -0.000000 -0.000001 0.000000 0.000000 -0.000001 0.000001 -0.000000 -0.000001 0.000000 -0.000001 4.755299 16.291738 -6.875270 -6.385720 57.667123 19.002377 0.000002 35.965621 0.000021 -31.597217 -30.685410 -17.384510 31.221355 -0.794997 -0.187878 -3.869682 -9.704032 -4.071601 0.000003 -0.000003 -0.000001 0.577752 -2.779704 23.478794 0.463242 -2.499880 20.992735 -0.000001 0.000002 -0.000001 0.577756 -2.779687 23.478784 0.463242 -2.499883 20.992733 -0.000002 -0.000000 0.000001 0.577752 -2.779690 23.478787 0.463245 -2.499878 20.992735 -0.000001 0.000001 0.000002 0.577755 -2.779713 23.478794 0.463236 -2.499860 20.992723 0.000001 0.000002 0.000001 0.000002 0.000002 -0.000000 0.000002 0.000001 -0.000000 0.000002 0.000001 -0.000001 -0.000003 0.000001 0.000000 -0.000003 0.000002 -0.000001 -0.000003 0.000001 0.000000 -0.000003 0.000002 -0.000001 -0.000000 -0.000000 0.000003 -0.000000 -0.000000 0.000003 -0.000000 -0.000000 0.000003 -0.000000 -0.000000 0.000003 -0.000000 -0.000000 0.000003 -0.000000 -0.000000 0.000003 -0.000000 -0.000000 0.000003 0.000000 0.000001 -0.000000 0.000002 -0.000000 -0.000000 
-5.958513 84.614471 50.202118 28.180462 7.701766 -17.340115 0.000001 0.000000 0.000001 -80.762534 -3.286944 13.416928 48.867531 5.368851 -7.951946 2.692662 0.314352 9.007051 0.000000 0.000002 -0.000000 -0.000000 -0.000000 0.000000 -20.202219 -21.530650 -20.521599 69.414181 -4.120123 -3.710674 42.152396 0.551911 0.841560 -0.000002 0.000001 -0.000001 0.000001 0.000001 0.000000 6.173531 10.019993 -9.138498 11.743703 10.656880 -7.606243 11.860008 10.534735 -7.618956 -4.146134 -2.636778 3.004336 -4.146133 -2.636787 3.004361 -0.000002 -0.000000 -0.000000 -4.146103 -2.636768 3.004344 -4.146106 -2.636789 3.004342 0.000003 0.000000 -0.000000 -0.000002 -0.000000 -0.000000 -0.246501 3.605296 3.561319 28.114723 -48.438875 -10.572340 0.000010 -21.961908 -0.000012 -10.198586 36.602652 -1.666806 -3.708765 -5.344628 -9.285595 10.685370 16.536455 0.020099 0.000003 0.000000 -0.000004 0.013959 0.439251 -3.642314 0.025886 0.597739 -4.959522 0.000001 0.000003 -0.000001 0.013838 0.437317 -3.626334 0.026069 0.599668 -4.975520 0.000001 0.000001 0.000001 0.013965 0.439250 -3.642315 0.025885 0.597747 -4.959524 -0.000001 -0.000001 0.000001 0.254030 4.486448 -3.142214 0.013191 -3.456762 -5.468400 -0.000002 0.000000 -0.000001 0.000001 0.000001 -0.000000 0.000001 0.000001 -0.000000 -0.000000 0.000001 -0.000000 -0.000002 0.000003 -0.000002 -0.000002 0.000003 -0.000004 -0.000002 0.000003 -0.000002 -0.000004 0.000003 -0.000002 4.570565 15.669525 -6.602631 -6.422819 55.485858 16.577527 -0.000004 34.357590 0.000009 -33.438062 -29.057407 -18.368950 31.163930 -0.844524 -0.217468 -3.862236 -9.728355 -4.073798 -0.000000 -0.000004 0.000001 0.576933 -2.777840 23.461978 0.461896 -2.496432 20.962141 0.000002 0.000002 -0.000002 0.576943 -2.777826 23.461982 0.461888 -2.496427 20.962139 -0.000001 -0.000000 0.000000 0.576928 -2.777834 23.461982 0.461902 -2.496420 20.962134 0.000001 -0.000001 -0.000002 0.576932 -2.777848 23.461983 0.461902 -2.496408 20.962141 -0.000002 0.000002 0.000000 0.000001 0.000000 0.000001 0.000001 0.000000 -0.000002 0.000001 0.000000 0.000001 -0.000002 -0.000001 -0.000000 -0.000002 -0.000001 -0.000000 -0.000002 -0.000001 -0.000000 -0.000002 -0.000001 -0.000000 -0.000001 -0.000000 0.000000 -0.000001 -0.000000 0.000000 -0.000001 -0.000000 0.000000 -0.000001 -0.000000 0.000000 -0.000001 -0.000000 0.000000 -0.000001 -0.000000 0.000000 -0.000001 -0.000000 0.000000 -0.000003 0.000000 -0.000000 0.000001 0.000000 0.000001 
-5.976362 84.534966 50.695950 27.307877 8.227812 -17.222127 -0.000001 0.000000 0.000000 -80.213188 -2.672605 13.596445 50.007718 4.477484 -7.693795 1.781894 0.280609 8.945737 0.000000 -0.000000 -0.000000 -0.000000 -0.000003 -0.000000 -21.000334 -21.229304 -19.792526 67.357454 -3.377452 -4.019464 42.132807 0.501522 0.747402 -0.000001 0.000001 -0.000000 0.000001 0.000001 -0.000000 6.215385 9.244872 -9.491656 11.857649 10.258354 -7.663927 12.006326 10.104654 -7.655085 -4.196823 -2.595710 2.953238 -4.196877 -2.595722 2.953235 0.000001 -0.000001 0.000001 -4.196873 -2.595758 2.953253 -4.196700 -2.595683 2.953241 0.000001 0.000000 -0.000001 0.000001 -0.000001 0.000001 -0.235971 3.479660 3.929594 26.629943 -50.227661 -7.790000 -0.000004 -20.582005 0.000008 -12.116084 35.063831 -1.214176 -3.708765 -5.344634 -9.285597 10.685377 16.536455 0.020102 0.000004 -0.000002 -0.000003 0.013958 0.439245 -3.642311 0.025886 0.597733 -4.959522 0.000001 -0.000002 0.000003 0.013840 0.437314 -3.626325 0.026069 0.599672 -4.975519 -0.000000 0.000000 -0.000001 0.013970 0.439241 -3.642309 0.025883 0.597741 -4.959525 0.000001 -0.000001 0.000001 0.254032 4.486450 -3.142211 0.013187 -3.456765 -5.468404 -0.000000 -0.000003 0.000001 -0.000002 -0.000001 -0.000000 -0.000002 -0.000001 -0.000000 -0.000003 -0.000001 -0.000000 -0.000000 0.000003 -0.000002 -0.000000 0.000002 -0.000003 -0.000000 0.000003 -0.000002 -0.000002 0.000002 -0.000003 4.407066 14.991007 -6.564024 -6.689352 53.586007 14.333820 -0.000017 32.841455 -0.000002 -34.852014 -27.174357 -18.930482 31.104422 -0.895763 -0.248174 -3.854502 -9.753754 -4.076059 -0.000000 -0.000003 0.000001 0.576082 -2.775889 23.444537 0.460478 -2.492706 20.929339 -0.000000 -0.000002 0.000000 0.576092 -2.775882 23.444536 0.460479 -2.492700 20.929342 0.000001 0.000001 -0.000000 0.576089 -2.775883 23.444542 0.460491 -2.492711 20.929342 -0.000001 0.000001 -0.000001 0.576089 -2.775905 23.444546 0.460476 -2.492698 20.929349 -0.000001 0.000002 -0.000001 0.000003 0.000000 0.000002 0.000003 0.000000 0.000002 0.000003 0.000000 0.000002 0.000000 0.000000 -0.000000 0.000000 0.000001 0.000000 0.000000 0.000000 -0.000000 0.000000 0.000001 0.000000 0.000001 0.000000 -0.000002 0.000001 0.000000 -0.000002 0.000001 0.000000 -0.000002 0.000001 0.000000 -0.000002 0.000001 0.000000 -0.000002 0.000001 0.000000 -0.000002 0.000001 0.000000 -0.000002 0.000002 0.000001 -0.000000 -0.000001 0.000000 0.000000 
